<?xml version="1.0" encoding="UTF-8" standalone="no"?>
<!DOCTYPE svg PUBLIC "-//W3C//DTD SVG 1.1//EN" "http://www.w3.org/Graphics/SVG/1.1/DTD/svg11.dtd">
<svg width="100%" height="100%" viewBox="0 0 50 50" version="1.1" xmlns="http://www.w3.org/2000/svg" xmlns:xlink="http://www.w3.org/1999/xlink" xml:space="preserve" xmlns:serif="http://www.serif.com/" style="fill-rule:evenodd;clip-rule:evenodd;stroke-linejoin:round;stroke-miterlimit:2;">
    <g id="Path_54" transform="matrix(1,0,0,1,-15.9796,-19.0126)">
        <path d="M54.029,58.771C53.653,58.719 53.272,58.719 52.896,58.771L52.69,58.771C52.69,58.671 52.59,58.771 52.484,58.671C51.929,58.653 51.377,58.584 50.835,58.465C48.107,57.906 45.642,56.455 43.828,54.343L43.622,54.137C42.592,55.373 41.767,56.713 40.84,58.053C40.007,56.683 39.077,55.375 38.058,54.137L37.958,54.137C37.858,54.237 37.752,54.446 37.649,54.549C35.569,56.919 32.651,58.397 29.509,58.671C29.264,58.654 29.019,58.688 28.788,58.771L28.688,58.771C28.661,58.743 28.624,58.727 28.585,58.727C28.546,58.727 28.509,58.743 28.482,58.771C28.421,58.772 28.361,58.772 28.3,58.772C21.428,58.772 15.772,53.117 15.772,46.244C15.772,45.434 15.851,44.625 16.007,43.83C16.325,42.114 17.03,40.493 18.068,39.09C18.168,38.99 18.168,38.884 18.168,38.678C17.73,36.996 16.959,35.419 15.9,34.041C15.9,33.941 15.8,33.941 15.8,33.835L23.528,33.835C23.734,33.835 23.837,33.835 23.94,33.735C25.19,32.886 26.54,32.194 27.959,31.674C31.566,30.216 35.405,29.412 39.294,29.3C41.95,29.16 44.613,29.333 47.228,29.815C50.956,30.472 54.523,31.836 57.738,33.834C57.821,33.912 57.934,33.949 58.047,33.934L66.187,33.934C65.039,35.269 64.226,36.859 63.817,38.571C63.8,38.749 63.835,38.928 63.917,39.086C65.38,41.178 66.165,43.671 66.165,46.224C66.165,52.821 60.923,58.333 54.334,58.664C54.132,58.771 54.029,58.668 54.029,58.771ZM40.84,45.272C40.829,45.516 40.863,45.761 40.94,45.993C40.957,45.748 40.923,45.503 40.84,45.272C40.94,45.066 40.94,44.757 41.046,44.551C41.447,41.33 43.117,38.399 45.683,36.411C47.385,35.059 49.409,34.171 51.556,33.835C52.071,33.735 52.483,33.735 52.999,33.629C48.282,31.653 43.149,30.874 38.058,31.362C34.787,31.54 31.576,32.308 28.578,33.629L28.784,33.629C31.026,33.645 33.214,34.327 35.069,35.587C37.292,36.978 39.023,39.033 40.015,41.46C40.447,42.691 40.724,43.972 40.84,45.272ZM43.313,46.199C43.313,51.74 47.872,56.299 53.413,56.299C58.954,56.299 63.513,51.74 63.513,46.199C63.513,40.658 58.954,36.099 53.413,36.099C47.889,36.143 43.356,40.676 43.313,46.2L43.313,46.199ZM28.372,36.1C28.355,36.1 28.339,36.1 28.322,36.1C22.754,36.1 18.172,40.682 18.172,46.25C18.172,51.818 22.754,56.4 28.322,56.4C33.871,56.4 38.445,51.849 38.472,46.3C38.472,46.271 38.472,46.243 38.472,46.214C38.472,40.671 33.915,36.107 28.372,36.1Z" style="fill:white;fill-rule:nonzero;"/>
    </g>
    <g id="Path_55" transform="matrix(1,0,0,1,-14.8846,-18.1436)">
        <path d="M51.8,57.9C52.141,57.849 52.489,57.849 52.83,57.9L51.8,57.9Z" style="fill:white;fill-rule:nonzero;"/>
    </g>
    <g id="Path_56" transform="matrix(1,0,0,1,-15.2406,-18.5406)">
        <path d="M40.1,44.8C40.191,45.029 40.225,45.276 40.2,45.521C40.117,45.29 40.083,45.045 40.1,44.8Z" style="fill:white;fill-rule:nonzero;"/>
    </g>
    <g id="Path_57" transform="matrix(1,0,0,1,-15.0486,-18.6926)">
        <path d="M46.4,45.879C46.4,42.544 49.144,39.8 52.48,39.8C55.815,39.8 58.559,42.544 58.559,45.879C58.517,49.198 55.799,51.916 52.48,51.958C49.147,51.953 46.406,49.212 46.4,45.879ZM48.255,45.779C48.255,48.097 50.162,50.004 52.48,50.004C54.798,50.004 56.705,48.097 56.705,45.779C56.705,43.461 54.798,41.554 52.48,41.554C50.167,41.564 48.267,43.463 48.255,45.776L48.255,45.779Z" style="fill:white;fill-rule:nonzero;"/>
    </g>
    <g id="Path_58" transform="matrix(1,0,0,1,-15.7936,-18.6926)">
        <path d="M21.9,45.879C21.9,45.862 21.9,45.844 21.9,45.827C21.9,42.464 24.667,39.696 28.031,39.696C31.394,39.696 34.162,42.464 34.162,45.827C34.162,49.191 31.394,51.958 28.031,51.958C28.014,51.958 27.996,51.958 27.979,51.958C24.651,51.94 21.918,49.207 21.9,45.879ZM32.2,45.879C32.2,45.878 32.2,45.876 32.2,45.875C32.2,43.557 30.293,41.65 27.975,41.65C25.657,41.65 23.75,43.557 23.75,45.875C23.75,48.193 25.657,50.1 27.975,50.1C27.976,50.1 27.978,50.1 27.979,50.1C27.993,50.1 28.007,50.1 28.021,50.1C30.314,50.1 32.2,48.214 32.2,45.921C32.2,45.907 32.2,45.893 32.2,45.879Z" style="fill:white;fill-rule:nonzero;"/>
    </g>
    <g id="Path_59" transform="matrix(1,0,0,1,-14.9396,-18.5766)">
        <path d="M50,45.661C50,44.53 50.93,43.6 52.061,43.6C53.192,43.6 54.122,44.53 54.122,45.661C54.122,46.792 53.192,47.722 52.061,47.722C52.04,47.723 52.02,47.723 51.999,47.723C50.902,47.723 49.999,46.82 49.999,45.723C49.999,45.702 49.999,45.682 50,45.661Z" style="fill:white;fill-rule:nonzero;"/>
    </g>
    <g id="Path_60" transform="matrix(1,0,0,1,-15.6836,-18.5736)">
        <path d="M27.561,47.822C26.43,47.822 25.5,46.892 25.5,45.761C25.5,44.63 26.43,43.7 27.561,43.7C28.692,43.7 29.622,44.63 29.622,45.761C29.619,46.89 28.69,47.819 27.561,47.822Z" style="fill:white;fill-rule:nonzero;"/>
    </g>
</svg>
